<?xml version="1.0" standalone="no"?>
<!DOCTYPE svg PUBLIC "-//W3C//DTD SVG 20010904//EN"
 "http://www.w3.org/TR/2001/REC-SVG-20010904/DTD/svg10.dtd">
<svg version="1.0" xmlns="http://www.w3.org/2000/svg"
 width="604.000000pt" height="604.000000pt" viewBox="0 0 604.000000 604.000000"
 preserveAspectRatio="xMidYMid meet">
<metadata>
Created by potrace 1.11, written by Peter Selinger 2001-2013
</metadata>
<g transform="translate(0.000000,604.000000) scale(0.100000,-0.100000)"
fill="#000000" stroke="none">
<path d="M2947 5714 c-1 -1 -51 -5 -112 -9 -132 -8 -190 -13 -190 -15 0 -1
-16 -3 -35 -6 -41 -5 -76 -11 -110 -19 -14 -3 -40 -8 -59 -11 -70 -12 -237
-58 -311 -85 -30 -12 -59 -22 -65 -24 -12 -2 -36 -12 -85 -33 -19 -8 -41 -16
-48 -18 -22 -4 -257 -126 -263 -136 -3 -5 -10 -10 -15 -10 -17 -1 -74 -32 -74
-40 0 -4 -6 -8 -13 -8 -7 0 -23 -9 -35 -20 -12 -11 -23 -20 -26 -20 -6 0 -94
-59 -112 -75 -6 -5 -26 -21 -44 -35 -18 -14 -38 -29 -44 -35 -6 -5 -33 -28
-61 -50 -65 -52 -237 -225 -295 -295 -24 -30 -68 -79 -96 -107 -28 -29 -48
-53 -45 -53 3 0 -1 -6 -9 -13 -16 -14 -17 -14 -88 -137 -78 -133 -123 -220
-115 -220 5 0 3 -4 -3 -8 -9 -6 -91 -178 -98 -207 -2 -5 -9 -23 -15 -40 -7
-16 -14 -34 -15 -40 -2 -5 -8 -23 -14 -38 -7 -16 -12 -34 -12 -41 0 -7 -3 -16
-7 -20 -5 -4 -8 -11 -8 -14 -1 -4 -4 -16 -8 -27 -3 -11 -8 -31 -11 -45 -3 -14
-14 -58 -25 -98 -10 -40 -19 -75 -19 -77 0 -3 -3 -18 -6 -33 -7 -34 -15 -78
-22 -122 -3 -19 -7 -46 -10 -60 -23 -121 -23 -587 0 -710 2 -14 7 -44 10 -67
3 -22 8 -52 10 -65 3 -12 8 -35 11 -51 11 -58 17 -84 37 -157 11 -41 21 -79
22 -85 1 -5 4 -14 7 -20 4 -5 9 -22 13 -37 3 -15 11 -40 18 -55 6 -15 12 -30
12 -33 1 -6 24 -65 36 -95 28 -67 126 -265 144 -290 11 -16 21 -32 20 -35 -1
-7 112 -186 126 -200 3 -3 18 -24 34 -47 16 -24 33 -43 37 -43 5 0 9 -5 9 -11
0 -6 6 -16 13 -24 6 -7 28 -32 47 -56 153 -190 380 -391 595 -530 139 -89 137
-88 165 -101 14 -7 27 -15 30 -18 8 -8 201 -102 215 -104 7 -1 19 -7 26 -12 8
-6 23 -14 34 -17 11 -3 65 -21 120 -40 114 -39 171 -57 200 -62 11 -2 21 -4
23 -5 3 -3 5 -4 76 -19 33 -7 69 -14 80 -16 12 -2 37 -5 56 -8 142 -23 244
-30 405 -31 134 0 287 7 369 19 16 2 57 6 91 9 34 4 76 11 93 16 18 5 35 9 37
9 13 -1 78 15 155 38 47 13 96 26 109 29 13 3 32 9 41 14 10 5 20 6 24 3 3 -3
6 -1 6 5 0 7 7 12 15 12 31 0 203 77 395 176 92 47 350 221 350 236 0 4 6 8
13 8 7 0 19 9 27 20 8 11 18 20 23 20 24 0 377 355 377 380 0 4 4 10 9 12 19
7 241 334 241 355 0 3 9 18 21 34 11 16 17 29 12 29 -4 0 -3 4 2 8 25 17 139
282 184 427 32 105 76 283 86 349 3 21 7 41 9 45 3 3 7 36 11 71 3 36 8 83 11
105 2 22 6 104 9 182 2 78 6 147 10 153 3 5 3 10 -2 10 -4 0 -9 26 -9 58 -1
58 -10 163 -19 217 -2 17 -7 47 -10 67 -3 21 -9 57 -14 80 -6 24 -13 59 -16
78 -21 123 -140 461 -211 600 -16 30 -29 59 -29 63 0 4 -6 11 -13 16 -8 5 -13
10 -11 12 5 9 -48 100 -120 207 -42 63 -80 121 -86 130 -5 9 -15 21 -21 27 -5
5 -23 28 -39 50 -100 137 -363 388 -520 496 -27 19 -52 36 -55 39 -3 3 -30 21
-60 40 -30 19 -57 37 -60 40 -14 15 -284 152 -380 193 -53 22 -268 93 -325
107 -27 6 -61 16 -75 21 -21 7 -109 24 -237 45 -75 12 -418 35 -426 28z"/>
</g>
</svg>
